<mxfile host="app.diagrams.net" modified="2023-05-08T15:11:07.690Z" agent="Mozilla/5.0 (X11; Linux x86_64; rv:109.0) Gecko/20100101 Firefox/112.0" etag="UnXddBYSCQz7XM4IpTGu" version="21.2.9" type="device">
  <diagram name="Page-1" id="-2u2SKVnE-ANhzjLPaXM">
    <mxGraphModel dx="794" dy="759" grid="1" gridSize="10" guides="1" tooltips="1" connect="1" arrows="1" fold="1" page="1" pageScale="1" pageWidth="850" pageHeight="1100" math="0" shadow="0">
      <root>
        <mxCell id="0" />
        <mxCell id="1" parent="0" />
        <mxCell id="Yj-_z-fnFErobZXTYSRv-1" value="" style="rounded=0;whiteSpace=wrap;html=1;fontSize=12;dashed=1;" vertex="1" parent="1">
          <mxGeometry x="270" y="475" width="320" height="65" as="geometry" />
        </mxCell>
        <mxCell id="Yj-_z-fnFErobZXTYSRv-2" value="" style="endArrow=none;dashed=1;html=1;strokeWidth=2;" edge="1" parent="1">
          <mxGeometry width="50" height="50" relative="1" as="geometry">
            <mxPoint x="137.5" y="455.5" as="sourcePoint" />
            <mxPoint x="650" y="455" as="targetPoint" />
          </mxGeometry>
        </mxCell>
        <mxCell id="Yj-_z-fnFErobZXTYSRv-3" value="&lt;div&gt;Infra&lt;/div&gt;&lt;div&gt;metrics&lt;br&gt;&lt;/div&gt;" style="rounded=0;orthogonalLoop=1;jettySize=auto;html=1;exitX=0.772;exitY=1;exitDx=0;exitDy=0;exitPerimeter=0;entryX=0.75;entryY=0;entryDx=0;entryDy=0;fillColor=#0050ef;strokeColor=#001DBC;" edge="1" parent="1" source="Yj-_z-fnFErobZXTYSRv-5">
          <mxGeometry relative="1" as="geometry">
            <mxPoint x="508.75" y="240" as="targetPoint" />
          </mxGeometry>
        </mxCell>
        <mxCell id="Yj-_z-fnFErobZXTYSRv-4" value="&lt;div&gt;System&lt;/div&gt;&lt;div&gt;Logs&lt;br&gt;&lt;/div&gt;" style="rounded=0;orthogonalLoop=1;jettySize=auto;html=1;exitX=0.15;exitY=1.005;exitDx=0;exitDy=0;entryX=0.143;entryY=0;entryDx=0;entryDy=0;entryPerimeter=0;labelBackgroundColor=#ffffff;fontSize=11;exitPerimeter=0;fillColor=#d80073;strokeColor=#A50040;" edge="1" parent="1" source="Yj-_z-fnFErobZXTYSRv-5">
          <mxGeometry relative="1" as="geometry">
            <mxPoint x="340.01" y="240" as="targetPoint" />
          </mxGeometry>
        </mxCell>
        <mxCell id="Yj-_z-fnFErobZXTYSRv-5" value="" style="rounded=0;whiteSpace=wrap;html=1;fontSize=12;dashed=1;" vertex="1" parent="1">
          <mxGeometry x="300" y="70" width="270" height="110" as="geometry" />
        </mxCell>
        <mxCell id="Yj-_z-fnFErobZXTYSRv-6" value="App" style="rounded=0;whiteSpace=wrap;html=1;fillColor=#f5f5f5;strokeColor=#666666;fontSize=13;fontColor=#333333;" vertex="1" parent="1">
          <mxGeometry x="320" y="110" width="230" height="30" as="geometry" />
        </mxCell>
        <mxCell id="Yj-_z-fnFErobZXTYSRv-7" value="&lt;div&gt;App&lt;/div&gt;&lt;div&gt;Logs&lt;/div&gt;" style="rounded=0;orthogonalLoop=1;jettySize=auto;html=1;exitX=0.25;exitY=1;exitDx=0;exitDy=0;entryX=0.671;entryY=0;entryDx=0;entryDy=0;entryPerimeter=0;fillColor=#d80073;strokeColor=#A50040;" edge="1" parent="1" source="Yj-_z-fnFErobZXTYSRv-9">
          <mxGeometry relative="1" as="geometry">
            <mxPoint x="376.97" y="240" as="targetPoint" />
          </mxGeometry>
        </mxCell>
        <mxCell id="Yj-_z-fnFErobZXTYSRv-8" value="&lt;div&gt;App&lt;/div&gt;&lt;div&gt;metrics&lt;br&gt;&lt;/div&gt;" style="rounded=0;orthogonalLoop=1;jettySize=auto;html=1;entryX=0.25;entryY=0;entryDx=0;entryDy=0;fillColor=#0050ef;strokeColor=#001DBC;" edge="1" parent="1">
          <mxGeometry relative="1" as="geometry">
            <mxPoint x="466" y="171" as="sourcePoint" />
            <mxPoint x="466.25" y="240" as="targetPoint" />
          </mxGeometry>
        </mxCell>
        <mxCell id="Yj-_z-fnFErobZXTYSRv-9" value="Auto and Manual instrumentation" style="rounded=0;whiteSpace=wrap;html=1;fillColor=#ffe6cc;strokeColor=#d79b00;fontSize=13;" vertex="1" parent="1">
          <mxGeometry x="320" y="140" width="230" height="30" as="geometry" />
        </mxCell>
        <mxCell id="Yj-_z-fnFErobZXTYSRv-10" value="Infra/Host/VM/Pod/Container" style="text;html=1;strokeColor=none;fillColor=none;align=center;verticalAlign=middle;whiteSpace=wrap;rounded=0;fontSize=13;" vertex="1" parent="1">
          <mxGeometry x="350" y="80" width="170" height="20" as="geometry" />
        </mxCell>
        <mxCell id="Yj-_z-fnFErobZXTYSRv-11" value="Logs" style="rounded=1;whiteSpace=wrap;html=1;fillColor=#f8cecc;strokeColor=#b85450;fontStyle=0;fontSize=11;" vertex="1" parent="1">
          <mxGeometry x="300" y="495" width="70" height="30" as="geometry" />
        </mxCell>
        <mxCell id="Yj-_z-fnFErobZXTYSRv-12" value="&lt;font style=&quot;font-size: 13px&quot;&gt;Customer&lt;/font&gt;" style="text;html=1;strokeColor=none;fillColor=none;align=center;verticalAlign=middle;whiteSpace=wrap;rounded=0;fontSize=13;" vertex="1" parent="1">
          <mxGeometry x="160.5" y="425" width="40" height="20" as="geometry" />
        </mxCell>
        <mxCell id="Yj-_z-fnFErobZXTYSRv-13" value="&lt;div&gt;Splunk&lt;/div&gt;&lt;div&gt;Observability&lt;/div&gt;&lt;div&gt;SaaS&lt;/div&gt;" style="text;html=1;strokeColor=none;fillColor=none;align=center;verticalAlign=middle;whiteSpace=wrap;rounded=0;fontSize=13;" vertex="1" parent="1">
          <mxGeometry x="140" y="475" width="81" height="20" as="geometry" />
        </mxCell>
        <mxCell id="Yj-_z-fnFErobZXTYSRv-14" value="Traces" style="rounded=0;orthogonalLoop=1;jettySize=auto;html=1;entryX=0.5;entryY=0;entryDx=0;entryDy=0;fillColor=#60a917;strokeColor=#2D7600;" edge="1" parent="1">
          <mxGeometry relative="1" as="geometry">
            <mxPoint x="423" y="171" as="sourcePoint" />
            <mxPoint x="422.5" y="240" as="targetPoint" />
          </mxGeometry>
        </mxCell>
        <mxCell id="Yj-_z-fnFErobZXTYSRv-15" value="Unified &lt;br style=&quot;font-size: 11px&quot;&gt; Agent" style="rounded=1;whiteSpace=wrap;html=1;fillColor=#f5f5f5;strokeColor=#666666;fontSize=13;fontColor=#333333;" vertex="1" parent="1">
          <mxGeometry x="300" y="240" width="270" height="60" as="geometry" />
        </mxCell>
        <mxCell id="Yj-_z-fnFErobZXTYSRv-16" value="&lt;div&gt;Correlated&lt;/div&gt;&lt;div&gt;Telemetry&lt;br&gt;&lt;/div&gt;" style="edgeStyle=orthogonalEdgeStyle;rounded=0;orthogonalLoop=1;jettySize=auto;html=1;exitX=0.5;exitY=1;exitDx=0;exitDy=0;entryX=0.5;entryY=0;entryDx=0;entryDy=0;labelBackgroundColor=#ffffff;fontSize=11;strokeWidth=2;" edge="1" parent="1" source="Yj-_z-fnFErobZXTYSRv-15" target="Yj-_z-fnFErobZXTYSRv-17">
          <mxGeometry x="-0.1429" relative="1" as="geometry">
            <mxPoint x="435" y="410" as="targetPoint" />
            <mxPoint x="435" y="350" as="sourcePoint" />
            <mxPoint as="offset" />
          </mxGeometry>
        </mxCell>
        <mxCell id="Yj-_z-fnFErobZXTYSRv-17" value="Unified Collector&lt;div&gt;(Optional)&lt;br&gt;&lt;/div&gt;" style="rounded=1;whiteSpace=wrap;html=1;fillColor=#f5f5f5;strokeColor=#666666;fontSize=13;fontColor=#333333;" vertex="1" parent="1">
          <mxGeometry x="350" y="380" width="170" height="50" as="geometry" />
        </mxCell>
        <mxCell id="Yj-_z-fnFErobZXTYSRv-18" style="rounded=0;orthogonalLoop=1;jettySize=auto;html=1;exitX=0.25;exitY=1;exitDx=0;exitDy=0;entryX=0.5;entryY=0;entryDx=0;entryDy=0;labelBackgroundColor=#ffffff;fontSize=11;fillColor=#d80073;strokeColor=#A50040;strokeWidth=2;" edge="1" parent="1" source="Yj-_z-fnFErobZXTYSRv-17" target="Yj-_z-fnFErobZXTYSRv-11">
          <mxGeometry relative="1" as="geometry">
            <mxPoint x="397.5" y="470" as="sourcePoint" />
          </mxGeometry>
        </mxCell>
        <mxCell id="Yj-_z-fnFErobZXTYSRv-19" style="edgeStyle=orthogonalEdgeStyle;rounded=0;orthogonalLoop=1;jettySize=auto;html=1;exitX=0.5;exitY=1;exitDx=0;exitDy=0;entryX=0.5;entryY=0;entryDx=0;entryDy=0;labelBackgroundColor=#ffffff;fontSize=11;fillColor=#60a917;strokeColor=#2D7600;strokeWidth=2;" edge="1" parent="1" source="Yj-_z-fnFErobZXTYSRv-17" target="Yj-_z-fnFErobZXTYSRv-21">
          <mxGeometry relative="1" as="geometry">
            <mxPoint x="435" y="470" as="sourcePoint" />
          </mxGeometry>
        </mxCell>
        <mxCell id="Yj-_z-fnFErobZXTYSRv-20" style="rounded=0;orthogonalLoop=1;jettySize=auto;html=1;exitX=0.75;exitY=1;exitDx=0;exitDy=0;entryX=0.5;entryY=0;entryDx=0;entryDy=0;labelBackgroundColor=#ffffff;fontSize=11;fillColor=#0050ef;strokeColor=#001DBC;strokeWidth=2;" edge="1" parent="1" source="Yj-_z-fnFErobZXTYSRv-17" target="Yj-_z-fnFErobZXTYSRv-22">
          <mxGeometry relative="1" as="geometry">
            <mxPoint x="472.5" y="470" as="sourcePoint" />
          </mxGeometry>
        </mxCell>
        <mxCell id="Yj-_z-fnFErobZXTYSRv-21" value="Traces" style="rounded=1;whiteSpace=wrap;html=1;fillColor=#d5e8d4;strokeColor=#82b366;fontStyle=0;fontSize=11;" vertex="1" parent="1">
          <mxGeometry x="400" y="495" width="70" height="30" as="geometry" />
        </mxCell>
        <mxCell id="Yj-_z-fnFErobZXTYSRv-22" value="Metrics" style="rounded=1;whiteSpace=wrap;html=1;fillColor=#dae8fc;strokeColor=#6c8ebf;fontStyle=0;fontSize=11;" vertex="1" parent="1">
          <mxGeometry x="500" y="495" width="70" height="30" as="geometry" />
        </mxCell>
        <mxCell id="Yj-_z-fnFErobZXTYSRv-23" value="Backend(s)" style="text;html=1;strokeColor=none;fillColor=none;align=center;verticalAlign=middle;whiteSpace=wrap;rounded=0;fontSize=11;rotation=90;" vertex="1" parent="1">
          <mxGeometry x="250" y="495" width="60" height="20" as="geometry" />
        </mxCell>
        <mxCell id="Yj-_z-fnFErobZXTYSRv-24" value="Unified Collection: NorthStar" style="text;html=1;strokeColor=none;fillColor=none;align=center;verticalAlign=middle;whiteSpace=wrap;rounded=0;fontSize=16;fontStyle=1" vertex="1" parent="1">
          <mxGeometry x="310" y="40" width="250" height="20" as="geometry" />
        </mxCell>
        <mxCell id="Yj-_z-fnFErobZXTYSRv-25" value="" style="endArrow=none;html=1;strokeWidth=2;fillColor=#d80073;strokeColor=#A50040;" edge="1" parent="1">
          <mxGeometry width="50" height="50" relative="1" as="geometry">
            <mxPoint x="150.25" y="90" as="sourcePoint" />
            <mxPoint x="170.25" y="90" as="targetPoint" />
          </mxGeometry>
        </mxCell>
        <mxCell id="Yj-_z-fnFErobZXTYSRv-26" value="Logs" style="text;html=1;strokeColor=none;fillColor=none;align=left;verticalAlign=middle;whiteSpace=wrap;rounded=0;fontSize=11;" vertex="1" parent="1">
          <mxGeometry x="170.75" y="80" width="40" height="20" as="geometry" />
        </mxCell>
        <mxCell id="Yj-_z-fnFErobZXTYSRv-27" value="" style="endArrow=none;html=1;strokeWidth=2;fillColor=#008a00;strokeColor=#005700;" edge="1" parent="1">
          <mxGeometry width="50" height="50" relative="1" as="geometry">
            <mxPoint x="150.25" y="110" as="sourcePoint" />
            <mxPoint x="170.25" y="110" as="targetPoint" />
          </mxGeometry>
        </mxCell>
        <mxCell id="Yj-_z-fnFErobZXTYSRv-28" value="Traces" style="text;html=1;strokeColor=none;fillColor=none;align=left;verticalAlign=middle;whiteSpace=wrap;rounded=0;fontSize=11;" vertex="1" parent="1">
          <mxGeometry x="170.75" y="100" width="40" height="20" as="geometry" />
        </mxCell>
        <mxCell id="Yj-_z-fnFErobZXTYSRv-29" value="" style="endArrow=none;html=1;strokeWidth=2;fillColor=#0050ef;strokeColor=#001DBC;" edge="1" parent="1">
          <mxGeometry width="50" height="50" relative="1" as="geometry">
            <mxPoint x="150.25" y="130" as="sourcePoint" />
            <mxPoint x="170.25" y="130" as="targetPoint" />
          </mxGeometry>
        </mxCell>
        <mxCell id="Yj-_z-fnFErobZXTYSRv-30" value="Metrics" style="text;html=1;strokeColor=none;fillColor=none;align=left;verticalAlign=middle;whiteSpace=wrap;rounded=0;fontSize=11;" vertex="1" parent="1">
          <mxGeometry x="170.75" y="120" width="40" height="20" as="geometry" />
        </mxCell>
        <mxCell id="Yj-_z-fnFErobZXTYSRv-31" value="&lt;div&gt;Infra&lt;/div&gt;&lt;div&gt;Tags&lt;br&gt;&lt;/div&gt;" style="edgeStyle=orthogonalEdgeStyle;rounded=0;orthogonalLoop=1;jettySize=auto;html=1;entryX=1;entryY=0.5;entryDx=0;entryDy=0;labelBackgroundColor=#ffffff;strokeWidth=1;exitX=1;exitY=0.75;exitDx=0;exitDy=0;" edge="1" parent="1" source="Yj-_z-fnFErobZXTYSRv-5" target="Yj-_z-fnFErobZXTYSRv-15">
          <mxGeometry x="0.0986" relative="1" as="geometry">
            <mxPoint x="557" y="180" as="sourcePoint" />
            <Array as="points">
              <mxPoint x="600" y="153" />
              <mxPoint x="600" y="270" />
            </Array>
            <mxPoint as="offset" />
            <mxPoint x="510" y="295" as="targetPoint" />
          </mxGeometry>
        </mxCell>
      </root>
    </mxGraphModel>
  </diagram>
</mxfile>
